{
  "accessors": [
    {
      "bufferView": 2,
      "componentType": 5126,
      "count": 65532,
      "max": [
        9.124505996704102,
        11.816121101379395,
        9.745977401733398
      ],
      "min": [
        -9.124505996704102,
        -0.001476287841796875,
        -9.745977401733398
      ],
      "type": "VEC3"
    },
    {
      "bufferView": 2,
      "byteOffset": 786384,
      "componentType": 5126,
      "count": 65532,
      "max": [
        0.9999899864196777,
        1.0,
        0.9999487400054932
      ],
      "min": [
        -0.9999825954437256,
        -1.0,
        -0.9999998807907104
      ],
      "type": "VEC3"
    },
    {
      "bufferView": 1,
      "componentType": 5126,
      "count": 65532,
      "max": [
        0.9955658316612244,
        0.9949334859848022
      ],
      "min": [
        0.005524948239326477,
        0.005360960960388184
      ],
      "type": "VEC2"
    },
    {
      "bufferView": 1,
      "byteOffset": 524256,
      "componentType": 5126,
      "count": 65532,
      "max": [
        0.9955658316612244,
        0.9949334859848022
      ],
      "min": [
        0.005524948239326477,
        0.005360960960388184
      ],
      "type": "VEC2"
    },
    {
      "bufferView": 1,
      "byteOffset": 1048512,
      "componentType": 5126,
      "count": 65532,
      "max": [
        0.9955658316612244,
        0.9949334859848022
      ],
      "min": [
        0.005524948239326477,
        0.005360960960388184
      ],
      "type": "VEC2"
    },
    {
      "bufferView": 0,
      "componentType": 5125,
      "count": 337341,
      "type": "SCALAR"
    },
    {
      "bufferView": 2,
      "byteOffset": 1572768,
      "componentType": 5126,
      "count": 17920,
      "max": [
        8.88450813293457,
        12.075275421142578,
        9.665258407592773
      ],
      "min": [
        -8.960691452026367,
        3.9735443592071533,
        -9.346925735473633
      ],
      "type": "VEC3"
    },
    {
      "bufferView": 2,
      "byteOffset": 1787808,
      "componentType": 5126,
      "count": 17920,
      "max": [
        0.9998757839202881,
        0.9999997615814209,
        0.9999061226844788
      ],
      "min": [
        -0.9998437166213989,
        -0.9999998807907104,
        -0.9999998807907104
      ],
      "type": "VEC3"
    },
    {
      "bufferView": 1,
      "byteOffset": 1572768,
      "componentType": 5126,
      "count": 17920,
      "max": [
        0.9896262884140015,
        0.9928876161575317
      ],
      "min": [
        0.006988063920289278,
        0.0068528056144714355
      ],
      "type": "VEC2"
    },
    {
      "bufferView": 1,
      "byteOffset": 1716128,
      "componentType": 5126,
      "count": 17920,
      "max": [
        0.9896262884140015,
        0.9928876161575317
      ],
      "min": [
        0.006988063920289278,
        0.0068528056144714355
      ],
      "type": "VEC2"
    },
    {
      "bufferView": 1,
      "byteOffset": 1859488,
      "componentType": 5126,
      "count": 17920,
      "max": [
        0.9896262884140015,
        0.9928876161575317
      ],
      "min": [
        0.006988063920289278,
        0.0068528056144714355
      ],
      "type": "VEC2"
    },
    {
      "bufferView": 0,
      "byteOffset": 1349364,
      "componentType": 5125,
      "count": 94404,
      "type": "SCALAR"
    }
  ],
  "asset": {
    "extras": {
      "author": "Crazy Cool by Champi & iX.i (https://sketchfab.com/ChampiAndIX.i)",
      "license": "CC-BY-4.0 (http://creativecommons.org/licenses/by/4.0/)",
      "source": "https://sketchfab.com/3d-models/candy-island-4036c0958661441c8cdb1780561874f1",
      "title": "Candy Island"
    },
    "generator": "Sketchfab-16.68.0",
    "version": "2.0"
  },
  "bufferViews": [
    {
      "buffer": 0,
      "byteLength": 1726980,
      "name": "floatBufferViews",
      "target": 34963
    },
    {
      "buffer": 0,
      "byteLength": 2002848,
      "byteOffset": 1726980,
      "byteStride": 8,
      "name": "floatBufferViews",
      "target": 34962
    },
    {
      "buffer": 0,
      "byteLength": 2002848,
      "byteOffset": 3729828,
      "byteStride": 12,
      "name": "floatBufferViews",
      "target": 34962
    }
  ],
  "buffers": [
    {
      "byteLength": 5732676,
      "uri": "scene.bin"
    }
  ],
  "extensionsUsed": [
    "KHR_materials_specular"
  ],
  "images": [
    {
      "uri": "textures/material_baseColor.png"
    },
    {
      "uri": "textures/material_metallicRoughness.png"
    }
  ],
  "materials": [
    {
      "doubleSided": true,
      "extensions": {
        "KHR_materials_specular": {
          "specularColorFactor": [
            1.0,
            1.0,
            1.0
          ],
          "specularFactor": 1.0
        }
      },
      "name": "material",
      "pbrMetallicRoughness": {
        "baseColorTexture": {
          "index": 0
        },
        "metallicFactor": 0.0,
        "metallicRoughnessTexture": {
          "index": 1,
          "texCoord": 1
        }
      }
    }
  ],
  "meshes": [
    {
      "name": "Object_0",
      "primitives": [
        {
          "attributes": {
            "NORMAL": 1,
            "POSITION": 0,
            "TEXCOORD_0": 2,
            "TEXCOORD_1": 3,
            "TEXCOORD_2": 4
          },
          "indices": 5,
          "material": 0,
          "mode": 4
        }
      ]
    },
    {
      "name": "Object_1",
      "primitives": [
        {
          "attributes": {
            "NORMAL": 7,
            "POSITION": 6,
            "TEXCOORD_0": 8,
            "TEXCOORD_1": 9,
            "TEXCOORD_2": 10
          },
          "indices": 11,
          "material": 0,
          "mode": 4
        }
      ]
    }
  ],
  "nodes": [
    {
      "children": [
        1
      ],
      "matrix": [
        1.0,
        0.0,
        0.0,
        0.0,
        0.0,
        2.220446049250313e-16,
        -1.0,
        0.0,
        0.0,
        1.0,
        2.220446049250313e-16,
        0.0,
        0.0,
        0.0,
        0.0,
        1.0
      ],
      "name": "Sketchfab_model"
    },
    {
      "children": [
        2
      ],
      "name": "root"
    },
    {
      "children": [
        3
      ],
      "matrix": [
        1.0,
        0.0,
        0.0,
        0.0,
        0.0,
        2.220446049250313e-16,
        1.0,
        0.0,
        0.0,
        -1.0,
        2.220446049250313e-16,
        0.0,
        0.0,
        0.0,
        0.0,
        1.0
      ],
      "name": "GLTF_SceneRootNode"
    },
    {
      "children": [
        4,
        5
      ],
      "matrix": [
        23.453624725341797,
        0.0,
        0.0,
        0.0,
        0.0,
        31.39389419555664,
        0.0,
        0.0,
        0.0,
        0.0,
        21.839319229125977,
        0.0,
        0.0,
        -0.16937339305877686,
        -0.4140414595603943,
        1.0
      ],
      "name": "Candy Island_0"
    },
    {
      "mesh": 0,
      "name": "Object_4"
    },
    {
      "mesh": 1,
      "name": "Object_5"
    }
  ],
  "samplers": [
    {
      "magFilter": 9729,
      "minFilter": 9987,
      "wrapS": 10497,
      "wrapT": 10497
    }
  ],
  "scene": 0,
  "scenes": [
    {
      "name": "Sketchfab_Scene",
      "nodes": [
        0
      ]
    }
  ],
  "textures": [
    {
      "sampler": 0,
      "source": 0
    },
    {
      "sampler": 0,
      "source": 1
    }
  ]
}
